# xmcd
#
# Track frame offsets:
#	150
#	18348
#	40638
#	60008
#	78197
#	93363
#	111223
#	132061
#	152097
#	171114
#
# Disc length: 2556 seconds
#
# Revision: 3944288245
# Processed by: cddbd v1.5.2PL0 Copyright (c) Steve Scherf et al.
# Submitted via: EZCDAudioConverter 8.0.2.1
#
DISCID=6509fa0a
DTITLE=周杰伦 - 七里香
DYEAR=2004
DGENRE=
TTITLE0=我的地盘
TTITLE1=七里香
TTITLE2=借口
TTITLE3=外婆
TTITLE4=将军
TTITLE5=搁浅
TTITLE6=乱舞春秋
TTITLE7=困兽之斗
TTITLE8=园游会
TTITLE9=止战之殇
EXTD=
EXTT0=
EXTT1=
EXTT2=
EXTT3=
EXTT4=
EXTT5=
EXTT6=
EXTT7=
EXTT8=
EXTT9=
PLAYORDER=
